<?xml version="1.0" encoding="UTF-8" standalone="no"?>
<!-- Created with Inkscape (http://www.inkscape.org/) -->

<svg
   width="115.77224mm"
   height="30.404907mm"
   viewBox="0 0 115.77224 30.404907"
   version="1.1"
   id="svg14367"
   sodipodi:docname="dice_skewed.svg"
   inkscape:version="1.1 (1:1.1+202105261517+ce6663b3b7)"
   xmlns:inkscape="http://www.inkscape.org/namespaces/inkscape"
   xmlns:sodipodi="http://sodipodi.sourceforge.net/DTD/sodipodi-0.dtd"
   xmlns:xlink="http://www.w3.org/1999/xlink"
   xmlns="http://www.w3.org/2000/svg"
   xmlns:svg="http://www.w3.org/2000/svg">
  <sodipodi:namedview
     id="namedview14369"
     pagecolor="#ffffff"
     bordercolor="#666666"
     borderopacity="1.0"
     inkscape:pageshadow="2"
     inkscape:pageopacity="0.0"
     inkscape:pagecheckerboard="0"
     inkscape:document-units="mm"
     showgrid="false"
     inkscape:zoom="0.77593294"
     inkscape:cx="82.481355"
     inkscape:cy="70.882414"
     inkscape:window-width="1920"
     inkscape:window-height="1061"
     inkscape:window-x="0"
     inkscape:window-y="0"
     inkscape:window-maximized="1"
     inkscape:current-layer="g15046" />
  <defs
     id="defs14364">
    <g
       id="g8856">
      <symbol
         overflow="visible"
         id="symbol7181">
        <path
           style="stroke:none"
           d=""
           id="path2415" />
      </symbol>
      <symbol
         overflow="visible"
         id="symbol5729">
        <path
           style="stroke:none"
           d="m 2.328125,-4.4375 c 0,-0.1875 0,-0.1875 -0.203125,-0.1875 -0.453125,0.4375 -1.078125,0.4375 -1.359375,0.4375 v 0.25 c 0.15625,0 0.625,0 1,-0.1875 v 3.546875 c 0,0.234375 0,0.328125 -0.6875,0.328125 H 0.8125 V 0 c 0.125,0 0.984375,-0.03125 1.234375,-0.03125 0.21875,0 1.09375,0.03125 1.25,0.03125 V -0.25 H 3.03125 c -0.703125,0 -0.703125,-0.09375 -0.703125,-0.328125 z m 0,0"
           id="path7780" />
      </symbol>
      <symbol
         overflow="visible"
         id="symbol6012">
        <path
           style="stroke:none"
           d="M 3.515625,-1.265625 H 3.28125 c -0.015625,0.15625 -0.09375,0.5625 -0.1875,0.625 C 3.046875,-0.59375 2.515625,-0.59375 2.40625,-0.59375 H 1.125 c 0.734375,-0.640625 0.984375,-0.84375 1.390625,-1.171875 0.515625,-0.40625 1,-0.84375 1,-1.5 0,-0.84375 -0.734375,-1.359375 -1.625,-1.359375 -0.859375,0 -1.453125,0.609375 -1.453125,1.25 0,0.34375 0.296875,0.390625 0.375,0.390625 0.15625,0 0.359375,-0.125 0.359375,-0.375 0,-0.125 -0.046875,-0.375 -0.40625,-0.375 C 0.984375,-4.21875 1.453125,-4.375 1.78125,-4.375 c 0.703125,0 1.0625,0.546875 1.0625,1.109375 0,0.609375 -0.4375,1.078125 -0.65625,1.328125 L 0.515625,-0.265625 C 0.4375,-0.203125 0.4375,-0.1875 0.4375,0 h 2.875 z m 0,0"
           id="path4896" />
      </symbol>
    </g>
    <g
       id="g1608">
      <symbol
         overflow="visible"
         id="symbol3738">
        <path
           style="stroke:none"
           d=""
           id="path9253" />
      </symbol>
      <symbol
         overflow="visible"
         id="symbol6879">
        <path
           style="stroke:none"
           d="m 2.328125,-4.4375 c 0,-0.1875 0,-0.1875 -0.203125,-0.1875 -0.453125,0.4375 -1.078125,0.4375 -1.359375,0.4375 v 0.25 c 0.15625,0 0.625,0 1,-0.1875 v 3.546875 c 0,0.234375 0,0.328125 -0.6875,0.328125 H 0.8125 V 0 c 0.125,0 0.984375,-0.03125 1.234375,-0.03125 0.21875,0 1.09375,0.03125 1.25,0.03125 V -0.25 H 3.03125 c -0.703125,0 -0.703125,-0.09375 -0.703125,-0.328125 z m 0,0"
           id="path9023" />
      </symbol>
      <symbol
         overflow="visible"
         id="symbol502">
        <path
           style="stroke:none"
           d="m 1.046875,-2.28125 c 0,-0.5625 0.046875,-1.078125 0.3125,-1.515625 0.234375,-0.375 0.609375,-0.625 1.0625,-0.625 0.203125,0 0.484375,0.046875 0.625,0.234375 C 2.875,-4.171875 2.71875,-4.046875 2.71875,-3.84375 c 0,0.171875 0.125,0.328125 0.328125,0.328125 0.21875,0 0.34375,-0.140625 0.34375,-0.34375 0,-0.40625 -0.296875,-0.765625 -0.984375,-0.765625 -1,0 -2.03125,0.921875 -2.03125,2.421875 0,1.796875 0.84375,2.34375 1.625,2.34375 0.84375,0 1.578125,-0.65625 1.578125,-1.5625 0,-0.890625 -0.703125,-1.546875 -1.515625,-1.546875 -0.5625,0 -0.859375,0.375 -1.015625,0.6875 z M 2,-0.078125 c -0.359375,0 -0.625,-0.203125 -0.78125,-0.515625 C 1.125,-0.796875 1.0625,-1.15625 1.0625,-1.5625 c 0,-0.6875 0.40625,-1.203125 0.96875,-1.203125 0.3125,0 0.53125,0.125 0.703125,0.375 0.171875,0.265625 0.171875,0.5625 0.171875,0.96875 0,0.390625 0,0.6875 -0.1875,0.96875 -0.15625,0.234375 -0.390625,0.375 -0.71875,0.375 z m 0,0"
           id="path2070" />
      </symbol>
    </g>
    <g
       id="g3686">
      <symbol
         overflow="visible"
         id="symbol1258">
        <path
           style="stroke:none"
           d=""
           id="path8155" />
      </symbol>
      <symbol
         overflow="visible"
         id="symbol8662">
        <path
           style="stroke:none"
           d="m 2.328125,-4.4375 c 0,-0.1875 0,-0.1875 -0.203125,-0.1875 -0.453125,0.4375 -1.078125,0.4375 -1.359375,0.4375 v 0.25 c 0.15625,0 0.625,0 1,-0.1875 v 3.546875 c 0,0.234375 0,0.328125 -0.6875,0.328125 H 0.8125 V 0 c 0.125,0 0.984375,-0.03125 1.234375,-0.03125 0.21875,0 1.09375,0.03125 1.25,0.03125 V -0.25 H 3.03125 c -0.703125,0 -0.703125,-0.09375 -0.703125,-0.328125 z m 0,0"
           id="path9247" />
      </symbol>
      <symbol
         overflow="visible"
         id="symbol486">
        <path
           style="stroke:none"
           d="M 3.515625,-1.265625 H 3.28125 c -0.015625,0.15625 -0.09375,0.5625 -0.1875,0.625 C 3.046875,-0.59375 2.515625,-0.59375 2.40625,-0.59375 H 1.125 c 0.734375,-0.640625 0.984375,-0.84375 1.390625,-1.171875 0.515625,-0.40625 1,-0.84375 1,-1.5 0,-0.84375 -0.734375,-1.359375 -1.625,-1.359375 -0.859375,0 -1.453125,0.609375 -1.453125,1.25 0,0.34375 0.296875,0.390625 0.375,0.390625 0.15625,0 0.359375,-0.125 0.359375,-0.375 0,-0.125 -0.046875,-0.375 -0.40625,-0.375 C 0.984375,-4.21875 1.453125,-4.375 1.78125,-4.375 c 0.703125,0 1.0625,0.546875 1.0625,1.109375 0,0.609375 -0.4375,1.078125 -0.65625,1.328125 L 0.515625,-0.265625 C 0.4375,-0.203125 0.4375,-0.1875 0.4375,0 h 2.875 z m 0,0"
           id="path3447" />
      </symbol>
    </g>
    <g
       id="g6019">
      <symbol
         overflow="visible"
         id="symbol4675">
        <path
           style="stroke:none"
           d=""
           id="path9506" />
      </symbol>
      <symbol
         overflow="visible"
         id="symbol8757">
        <path
           style="stroke:none"
           d="m 2.328125,-4.4375 c 0,-0.1875 0,-0.1875 -0.203125,-0.1875 -0.453125,0.4375 -1.078125,0.4375 -1.359375,0.4375 v 0.25 c 0.15625,0 0.625,0 1,-0.1875 v 3.546875 c 0,0.234375 0,0.328125 -0.6875,0.328125 H 0.8125 V 0 c 0.125,0 0.984375,-0.03125 1.234375,-0.03125 0.21875,0 1.09375,0.03125 1.25,0.03125 V -0.25 H 3.03125 c -0.703125,0 -0.703125,-0.09375 -0.703125,-0.328125 z m 0,0"
           id="path313" />
      </symbol>
      <symbol
         overflow="visible"
         id="symbol4861">
        <path
           style="stroke:none"
           d="m 2.46875,-2.515625 c 0.546875,-0.265625 0.890625,-0.59375 0.890625,-1.078125 0,-0.671875 -0.703125,-1.03125 -1.375,-1.03125 -0.765625,0 -1.390625,0.5 -1.390625,1.15625 0,0.328125 0.15625,0.5625 0.28125,0.703125 0.125,0.15625 0.171875,0.1875 0.578125,0.421875 C 1.0625,-2.171875 0.375,-1.796875 0.375,-1.0625 c 0,0.765625 0.796875,1.203125 1.59375,1.203125 0.890625,0 1.609375,-0.5625 1.609375,-1.3125 0,-0.46875 -0.265625,-0.859375 -0.671875,-1.09375 -0.09375,-0.0625 -0.328125,-0.1875 -0.4375,-0.25 z m -1.125,-0.65625 c -0.1875,-0.109375 -0.375,-0.296875 -0.375,-0.5625 0,-0.4375 0.5,-0.6875 1,-0.6875 0.546875,0 1.03125,0.34375 1.03125,0.828125 0,0.625 -0.734375,0.9375 -0.734375,0.9375 -0.015625,0 -0.03125,0 -0.078125,-0.03125 z m 0.328125,0.96875 0.96875,0.546875 c 0.171875,0.109375 0.515625,0.3125 0.515625,0.71875 0,0.53125 -0.578125,0.859375 -1.171875,0.859375 -0.640625,0 -1.1875,-0.421875 -1.1875,-0.984375 0,-0.515625 0.375,-0.921875 0.875,-1.140625 z m 0,0"
           id="path5247" />
      </symbol>
    </g>
  </defs>
  <g
     inkscape:label="Layer 1"
     inkscape:groupmode="layer"
     id="layer1"
     transform="translate(-9.9703653,-86.784624)">
    <g
       id="g1343"
       transform="matrix(0.41897218,0,0,0.41897218,-7.0651106,53.874857)"
       style="stroke-width:2.38679">
      <rect
         style="fill:#e6e6e6;stroke:none;stroke-width:1.19339;stroke-linecap:round;stroke-linejoin:round"
         id="rect846"
         width="38.199409"
         height="38.199409"
         x="40.66016"
         y="78.548813"
         ry="6.0276194" />
      <circle
         style="fill:#000000;stroke:none;stroke-width:1.19339;stroke-linecap:round;stroke-linejoin:round"
         id="path1049"
         cx="59.759865"
         cy="97.648514"
         r="3.1292639" />
    </g>
    <g
       id="g1349"
       transform="matrix(0.41897218,0,0,0.41897218,12.888442,53.874857)"
       style="stroke-width:2.38679">
      <rect
         style="fill:#e6e6e6;stroke:none;stroke-width:1.19339;stroke-linecap:round;stroke-linejoin:round"
         id="rect1345"
         width="38.199409"
         height="38.199409"
         x="40.66016"
         y="78.548813"
         ry="6.0276194" />
      <circle
         style="fill:#000000;stroke:none;stroke-width:1.19339;stroke-linecap:round;stroke-linejoin:round"
         id="circle1347"
         cx="53.409863"
         cy="91.298515"
         r="3.1292639" />
      <circle
         style="fill:#000000;stroke:none;stroke-width:1.19339;stroke-linecap:round;stroke-linejoin:round"
         id="circle1351"
         cx="66.109863"
         cy="103.99852"
         r="3.1292639" />
    </g>
    <g
       id="g1359"
       transform="matrix(0.41897218,0,0,0.41897218,32.84199,53.874857)"
       style="stroke-width:2.38679">
      <rect
         style="fill:#e6e6e6;stroke:none;stroke-width:1.19339;stroke-linecap:round;stroke-linejoin:round"
         id="rect1353"
         width="38.199409"
         height="38.199409"
         x="40.66016"
         y="78.548813"
         ry="6.0276194" />
      <circle
         style="fill:#000000;stroke:none;stroke-width:1.19339;stroke-linecap:round;stroke-linejoin:round"
         id="circle1355"
         cx="51.293194"
         cy="89.181847"
         r="3.1292639" />
      <circle
         style="fill:#000000;stroke:none;stroke-width:1.19339;stroke-linecap:round;stroke-linejoin:round"
         id="circle1357"
         cx="68.226532"
         cy="106.11518"
         r="3.1292639" />
      <circle
         style="fill:#000000;stroke:none;stroke-width:1.19339;stroke-linecap:round;stroke-linejoin:round"
         id="circle1361"
         cx="59.759869"
         cy="97.648521"
         r="3.1292639" />
    </g>
    <g
       id="g1473"
       transform="matrix(0.41897218,0,0,0.41897218,52.795552,53.874857)"
       style="stroke-width:2.38679">
      <rect
         style="fill:#e6e6e6;stroke:none;stroke-width:1.19339;stroke-linecap:round;stroke-linejoin:round"
         id="rect1465"
         width="38.199409"
         height="38.199409"
         x="40.66016"
         y="78.548813"
         ry="6.0276194" />
      <circle
         style="fill:#000000;stroke:none;stroke-width:1.19339;stroke-linecap:round;stroke-linejoin:round"
         id="circle1467"
         cx="51.293194"
         cy="89.181847"
         r="3.1292639" />
      <circle
         style="fill:#000000;stroke:none;stroke-width:1.19339;stroke-linecap:round;stroke-linejoin:round"
         id="circle1469"
         cx="68.226532"
         cy="106.11518"
         r="3.1292639" />
      <circle
         style="fill:#000000;stroke:none;stroke-width:1.19339;stroke-linecap:round;stroke-linejoin:round"
         id="circle1471"
         cx="68.226532"
         cy="89.181847"
         r="3.1292639" />
      <circle
         style="fill:#000000;stroke:none;stroke-width:1.19339;stroke-linecap:round;stroke-linejoin:round"
         id="circle1555"
         cx="51.293194"
         cy="106.11518"
         r="3.1292639" />
    </g>
    <g
       id="g1567"
       transform="matrix(0.41897218,0,0,0.41897218,72.749111,53.874857)"
       style="stroke-width:2.38679">
      <rect
         style="fill:#e6e6e6;stroke:none;stroke-width:1.19339;stroke-linecap:round;stroke-linejoin:round"
         id="rect1557"
         width="38.199409"
         height="38.199409"
         x="40.66016"
         y="78.548813"
         ry="6.0276194" />
      <circle
         style="fill:#000000;stroke:none;stroke-width:1.19339;stroke-linecap:round;stroke-linejoin:round"
         id="circle1559"
         cx="51.293194"
         cy="89.181847"
         r="3.1292639" />
      <circle
         style="fill:#000000;stroke:none;stroke-width:1.19339;stroke-linecap:round;stroke-linejoin:round"
         id="circle1561"
         cx="68.226532"
         cy="106.11518"
         r="3.1292639" />
      <circle
         style="fill:#000000;stroke:none;stroke-width:1.19339;stroke-linecap:round;stroke-linejoin:round"
         id="circle1563"
         cx="68.226532"
         cy="89.181847"
         r="3.1292639" />
      <circle
         style="fill:#000000;stroke:none;stroke-width:1.19339;stroke-linecap:round;stroke-linejoin:round"
         id="circle1565"
         cx="51.293194"
         cy="106.11518"
         r="3.1292639" />
      <circle
         style="fill:#000000;stroke:none;stroke-width:1.19339;stroke-linecap:round;stroke-linejoin:round"
         id="circle1569"
         cx="59.759865"
         cy="97.648514"
         r="3.1292639" />
    </g>
    <rect
       style="fill:#e6e6e6;stroke:none;stroke-width:0.499999;stroke-linecap:round;stroke-linejoin:round"
       id="rect1571"
       width="16.00449"
       height="16.00449"
       x="109.73811"
       y="86.78463"
       ry="2.5254047" />
    <circle
       style="fill:#000000;stroke:none;stroke-width:0.499999;stroke-linecap:round;stroke-linejoin:round"
       id="circle1573"
       cx="114.19305"
       cy="91.239571"
       r="1.3110745" />
    <circle
       style="fill:#000000;stroke:none;stroke-width:0.499999;stroke-linecap:round;stroke-linejoin:round"
       id="circle1575"
       cx="121.28765"
       cy="98.33416"
       r="1.3110745" />
    <circle
       style="fill:#000000;stroke:none;stroke-width:0.499999;stroke-linecap:round;stroke-linejoin:round"
       id="circle1577"
       cx="121.28765"
       cy="91.239571"
       r="1.3110745" />
    <circle
       style="fill:#000000;stroke:none;stroke-width:0.499999;stroke-linecap:round;stroke-linejoin:round"
       id="circle1579"
       cx="114.19305"
       cy="98.33416"
       r="1.3110745" />
    <circle
       style="fill:#000000;stroke:none;stroke-width:0.499999;stroke-linecap:round;stroke-linejoin:round"
       id="circle1581"
       cx="114.19305"
       cy="94.78688"
       r="1.3110745" />
    <circle
       style="fill:#000000;stroke:none;stroke-width:0.499999;stroke-linecap:round;stroke-linejoin:round"
       id="circle1585"
       cx="121.28765"
       cy="94.78688"
       r="1.3110745" />
    <g
       inkscape:label=""
       transform="translate(39.5528,36.7887)"
       id="g15046">
      <g
         id="g4714"
         transform="matrix(0.75,0,0,0.75,7.0759199,16.299594)"
         style="stroke-width:1.33333">
        <g
           style="fill:#000000;fill-opacity:1;stroke-width:1.33333"
           id="g2362">
          <use
             xlink:href="#symbol5729"
             x="93.121002"
             y="78.040001"
             id="use1680"
             width="100%"
             height="100%"
             style="stroke-width:1.33333" />
        </g>
        <path
           style="fill:none;stroke:#000000;stroke-width:0.530667;stroke-linecap:butt;stroke-linejoin:miter;stroke-miterlimit:10;stroke-opacity:1"
           d="M 9.375e-5,-6.5625e-4 H 3.97275"
           transform="matrix(1,0,0,-1,93.121,79.472)"
           id="path7163" />
        <g
           style="fill:#000000;fill-opacity:1;stroke-width:1.33333"
           id="g1846">
          <use
             xlink:href="#symbol6012"
             x="93.121002"
             y="85.398003"
             id="use6514"
             width="100%"
             height="100%"
             style="stroke-width:1.33333" />
        </g>
      </g>
      <g
         inkscape:label=""
         transform="matrix(0.75,0,0,0.75,-33.050093,16.24686)"
         id="g15976"
         style="stroke-width:1.33333">
        <g
           id="g15974"
           style="stroke-width:1.33333">
          <g
             style="fill:#000000;fill-opacity:1;stroke-width:1.33333"
             id="g15966">
            <use
               xlink:href="#symbol6879"
               x="93.121002"
               y="78.040001"
               id="use15964"
               width="100%"
               height="100%"
               style="stroke-width:1.33333" />
          </g>
          <path
             style="fill:none;stroke:#000000;stroke-width:0.530667;stroke-linecap:butt;stroke-linejoin:miter;stroke-miterlimit:10;stroke-opacity:1"
             d="M 9.375e-5,-6.5625e-4 H 3.97275"
             transform="matrix(1,0,0,-1,93.121,79.472)"
             id="path15968" />
          <g
             style="fill:#000000;fill-opacity:1;stroke-width:1.33333"
             id="g15972">
            <use
               xlink:href="#symbol502"
               x="93.121002"
               y="85.398003"
               id="use15970"
               width="100%"
               height="100%"
               style="stroke-width:1.33333" />
          </g>
        </g>
      </g>
      <g
         inkscape:label=""
         transform="matrix(0.75,0,0,0.75,-13.096535,16.24686)"
         id="g15990"
         style="stroke-width:1.33333">
        <g
           id="g15988"
           style="stroke-width:1.33333">
          <g
             style="fill:#000000;fill-opacity:1;stroke-width:1.33333"
             id="g15980">
            <use
               xlink:href="#symbol6879"
               x="93.121002"
               y="78.040001"
               id="use15978"
               width="100%"
               height="100%"
               style="stroke-width:1.33333" />
          </g>
          <path
             style="fill:none;stroke:#000000;stroke-width:0.530667;stroke-linecap:butt;stroke-linejoin:miter;stroke-miterlimit:10;stroke-opacity:1"
             d="M 9.375e-5,-6.5625e-4 H 3.97275"
             transform="matrix(1,0,0,-1,93.121,79.472)"
             id="path15982" />
          <g
             style="fill:#000000;fill-opacity:1;stroke-width:1.33333"
             id="g15986">
            <use
               xlink:href="#symbol502"
               x="93.121002"
               y="85.398003"
               id="use15984"
               width="100%"
               height="100%"
               style="stroke-width:1.33333" />
          </g>
        </g>
      </g>
      <g
         inkscape:label=""
         transform="matrix(0.75,0,0,0.75,-94.399035,16.24686)"
         id="g16319"
         style="stroke-width:1.33333">
        <g
           id="g6361"
           style="stroke-width:1.33333">
          <g
             style="fill:#000000;fill-opacity:1;stroke-width:1.33333"
             id="g7501">
            <use
               xlink:href="#symbol8757"
               x="95.106003"
               y="78.040001"
               id="use7904"
               width="100%"
               height="100%"
               style="stroke-width:1.33333" />
          </g>
          <path
             style="fill:none;stroke:#000000;stroke-width:0.530667;stroke-linecap:butt;stroke-linejoin:miter;stroke-miterlimit:10;stroke-opacity:1"
             d="M 9.375e-5,-6.5625e-4 H 7.9415"
             transform="matrix(1,0,0,-1,93.121,79.472)"
             id="path237" />
          <g
             style="fill:#000000;fill-opacity:1;stroke-width:1.33333"
             id="g2750">
            <use
               xlink:href="#symbol8757"
               x="93.121002"
               y="85.398003"
               id="use82"
               width="100%"
               height="100%"
               style="stroke-width:1.33333" />
            <use
               xlink:href="#symbol4861"
               x="97.092583"
               y="85.398003"
               id="use5761"
               width="100%"
               height="100%"
               style="stroke-width:1.33333" />
          </g>
        </g>
      </g>
      <g
         inkscape:label=""
         transform="matrix(0.75,0,0,0.75,-74.445488,16.24686)"
         id="g16371"
         style="stroke-width:1.33333">
        <g
           id="g16369"
           style="stroke-width:1.33333">
          <g
             style="fill:#000000;fill-opacity:1;stroke-width:1.33333"
             id="g16359">
            <use
               xlink:href="#symbol8757"
               x="95.106003"
               y="78.040001"
               id="use16357"
               width="100%"
               height="100%"
               style="stroke-width:1.33333" />
          </g>
          <path
             style="fill:none;stroke:#000000;stroke-width:0.530667;stroke-linecap:butt;stroke-linejoin:miter;stroke-miterlimit:10;stroke-opacity:1"
             d="M 9.375e-5,-6.5625e-4 H 7.9415"
             transform="matrix(1,0,0,-1,93.121,79.472)"
             id="path16361" />
          <g
             style="fill:#000000;fill-opacity:1;stroke-width:1.33333"
             id="g16367">
            <use
               xlink:href="#symbol8757"
               x="93.121002"
               y="85.398003"
               id="use16363"
               width="100%"
               height="100%"
               style="stroke-width:1.33333" />
            <use
               xlink:href="#symbol4861"
               x="97.092583"
               y="85.398003"
               id="use16365"
               width="100%"
               height="100%"
               style="stroke-width:1.33333" />
          </g>
        </g>
      </g>
      <g
         inkscape:label=""
         transform="matrix(0.75,0,0,0.75,-54.491937,16.24686)"
         id="g16387"
         style="stroke-width:1.33333">
        <g
           id="g16385"
           style="stroke-width:1.33333">
          <g
             style="fill:#000000;fill-opacity:1;stroke-width:1.33333"
             id="g16375">
            <use
               xlink:href="#symbol8757"
               x="95.106003"
               y="78.040001"
               id="use16373"
               width="100%"
               height="100%"
               style="stroke-width:1.33333" />
          </g>
          <path
             style="fill:none;stroke:#000000;stroke-width:0.530667;stroke-linecap:butt;stroke-linejoin:miter;stroke-miterlimit:10;stroke-opacity:1"
             d="M 9.375e-5,-6.5625e-4 H 7.9415"
             transform="matrix(1,0,0,-1,93.121,79.472)"
             id="path16377" />
          <g
             style="fill:#000000;fill-opacity:1;stroke-width:1.33333"
             id="g16383">
            <use
               xlink:href="#symbol8757"
               x="93.121002"
               y="85.398003"
               id="use16379"
               width="100%"
               height="100%"
               style="stroke-width:1.33333" />
            <use
               xlink:href="#symbol4861"
               x="97.092583"
               y="85.398003"
               id="use16381"
               width="100%"
               height="100%"
               style="stroke-width:1.33333" />
          </g>
        </g>
      </g>
    </g>
  </g>
</svg>
