<?xml version="1.0" encoding="UTF-8" standalone="no"?>
<!-- Created with Inkscape (http://www.inkscape.org/) -->

<svg
   width="115.77225mm"
   height="28.644461mm"
   viewBox="0 0 115.77225 28.644462"
   version="1.1"
   id="svg5"
   sodipodi:docname="dice_uniform.svg"
   inkscape:version="1.1 (1:1.1+202105261517+ce6663b3b7)"
   xmlns:inkscape="http://www.inkscape.org/namespaces/inkscape"
   xmlns:sodipodi="http://sodipodi.sourceforge.net/DTD/sodipodi-0.dtd"
   xmlns:xlink="http://www.w3.org/1999/xlink"
   xmlns="http://www.w3.org/2000/svg"
   xmlns:svg="http://www.w3.org/2000/svg">
  <sodipodi:namedview
     id="namedview7"
     pagecolor="#ffffff"
     bordercolor="#666666"
     borderopacity="1.0"
     inkscape:pageshadow="2"
     inkscape:pageopacity="0.0"
     inkscape:pagecheckerboard="0"
     inkscape:document-units="mm"
     showgrid="false"
     inkscape:zoom="1.0973349"
     inkscape:cx="271.56705"
     inkscape:cy="262.45407"
     inkscape:window-width="1920"
     inkscape:window-height="1061"
     inkscape:window-x="0"
     inkscape:window-y="0"
     inkscape:window-maximized="1"
     inkscape:current-layer="g1583" />
  <defs
     id="defs2">
    <rect
       x="198.76216"
       y="544.14716"
       width="67.017593"
       height="109.54547"
       id="rect11733" />
    <rect
       x="185.88724"
       y="500.33319"
       width="47.686302"
       height="94.08419"
       id="rect7835" />
    <rect
       x="225.83347"
       y="510.65488"
       width="154.65018"
       height="144.33325"
       id="rect3613" />
    <g
       id="g513">
      <symbol
         overflow="visible"
         id="symbol3325">
        <path
           style="stroke:none"
           d=""
           id="path4212" />
      </symbol>
      <symbol
         overflow="visible"
         id="symbol4690">
        <path
           style="stroke:none"
           d="m 2.9375,-6.375 c 0,-0.25 0,-0.265625 -0.234375,-0.265625 C 2.078125,-6 1.203125,-6 0.890625,-6 v 0.3125 c 0.203125,0 0.78125,0 1.296875,-0.265625 v 5.171875 c 0,0.359375 -0.03125,0.46875 -0.921875,0.46875 h -0.3125 V 0 c 0.34375,-0.03125 1.203125,-0.03125 1.609375,-0.03125 0.390625,0 1.265625,0 1.609375,0.03125 v -0.3125 h -0.3125 c -0.90625,0 -0.921875,-0.109375 -0.921875,-0.46875 z m 0,0"
           id="path7035" />
      </symbol>
      <symbol
         overflow="visible"
         id="symbol462">
        <path
           style="stroke:none"
           d="m 1.3125,-3.265625 v -0.25 c 0,-2.515625 1.234375,-2.875 1.75,-2.875 0.234375,0 0.65625,0.0625 0.875,0.40625 -0.15625,0 -0.546875,0 -0.546875,0.4375 0,0.3125 0.234375,0.46875 0.453125,0.46875 0.15625,0 0.46875,-0.09375 0.46875,-0.484375 0,-0.59375 -0.4375,-1.078125 -1.265625,-1.078125 -1.28125,0 -2.625,1.28125 -2.625,3.484375 0,2.671875 1.15625,3.375 2.078125,3.375 1.109375,0 2.0625,-0.9375 2.0625,-2.25 0,-1.265625 -0.890625,-2.21875 -2,-2.21875 -0.671875,0 -1.046875,0.5 -1.25,0.984375 z M 2.5,-0.0625 c -0.625,0 -0.921875,-0.59375 -0.984375,-0.75 -0.1875,-0.46875 -0.1875,-1.265625 -0.1875,-1.4375 0,-0.78125 0.328125,-1.78125 1.21875,-1.78125 0.171875,0 0.625,0 0.9375,0.625 0.171875,0.359375 0.171875,0.875 0.171875,1.359375 0,0.484375 0,0.984375 -0.171875,1.34375 C 3.1875,-0.109375 2.734375,-0.0625 2.5,-0.0625 Z m 0,0"
           id="path5870" />
      </symbol>
    </g>
    <g
       id="g6840">
      <symbol
         overflow="visible"
         id="symbol5432">
        <path
           style="stroke:none"
           d=""
           id="path4794" />
      </symbol>
      <symbol
         overflow="visible"
         id="symbol9072">
        <path
           style="stroke:none"
           d="m 2.328125,-4.4375 c 0,-0.1875 0,-0.1875 -0.203125,-0.1875 -0.453125,0.4375 -1.078125,0.4375 -1.359375,0.4375 v 0.25 c 0.15625,0 0.625,0 1,-0.1875 v 3.546875 c 0,0.234375 0,0.328125 -0.6875,0.328125 H 0.8125 V 0 c 0.125,0 0.984375,-0.03125 1.234375,-0.03125 0.21875,0 1.09375,0.03125 1.25,0.03125 V -0.25 H 3.03125 c -0.703125,0 -0.703125,-0.09375 -0.703125,-0.328125 z m 0,0"
           id="path8467" />
      </symbol>
      <symbol
         overflow="visible"
         id="symbol1903">
        <path
           style="stroke:none"
           d="m 1.046875,-2.28125 c 0,-0.5625 0.046875,-1.078125 0.3125,-1.515625 0.234375,-0.375 0.609375,-0.625 1.0625,-0.625 0.203125,0 0.484375,0.046875 0.625,0.234375 C 2.875,-4.171875 2.71875,-4.046875 2.71875,-3.84375 c 0,0.171875 0.125,0.328125 0.328125,0.328125 0.21875,0 0.34375,-0.140625 0.34375,-0.34375 0,-0.40625 -0.296875,-0.765625 -0.984375,-0.765625 -1,0 -2.03125,0.921875 -2.03125,2.421875 0,1.796875 0.84375,2.34375 1.625,2.34375 0.84375,0 1.578125,-0.65625 1.578125,-1.5625 0,-0.890625 -0.703125,-1.546875 -1.515625,-1.546875 -0.5625,0 -0.859375,0.375 -1.015625,0.6875 z M 2,-0.078125 c -0.359375,0 -0.625,-0.203125 -0.78125,-0.515625 C 1.125,-0.796875 1.0625,-1.15625 1.0625,-1.5625 c 0,-0.6875 0.40625,-1.203125 0.96875,-1.203125 0.3125,0 0.53125,0.125 0.703125,0.375 0.171875,0.265625 0.171875,0.5625 0.171875,0.96875 0,0.390625 0,0.6875 -0.1875,0.96875 -0.15625,0.234375 -0.390625,0.375 -0.71875,0.375 z m 0,0"
           id="path3080" />
      </symbol>
    </g>
    <g
       id="g7155">
      <symbol
         overflow="visible"
         id="symbol2935">
        <path
           style="stroke:none"
           d=""
           id="path9172" />
      </symbol>
      <symbol
         overflow="visible"
         id="symbol7493">
        <path
           style="stroke:none"
           d="m 2.328125,-4.4375 c 0,-0.1875 0,-0.1875 -0.203125,-0.1875 -0.453125,0.4375 -1.078125,0.4375 -1.359375,0.4375 v 0.25 c 0.15625,0 0.625,0 1,-0.1875 v 3.546875 c 0,0.234375 0,0.328125 -0.6875,0.328125 H 0.8125 V 0 c 0.125,0 0.984375,-0.03125 1.234375,-0.03125 0.21875,0 1.09375,0.03125 1.25,0.03125 V -0.25 H 3.03125 c -0.703125,0 -0.703125,-0.09375 -0.703125,-0.328125 z m 0,0"
           id="path7" />
      </symbol>
      <symbol
         overflow="visible"
         id="symbol3109">
        <path
           style="stroke:none"
           d="m 1.046875,-2.28125 c 0,-0.5625 0.046875,-1.078125 0.3125,-1.515625 0.234375,-0.375 0.609375,-0.625 1.0625,-0.625 0.203125,0 0.484375,0.046875 0.625,0.234375 C 2.875,-4.171875 2.71875,-4.046875 2.71875,-3.84375 c 0,0.171875 0.125,0.328125 0.328125,0.328125 0.21875,0 0.34375,-0.140625 0.34375,-0.34375 0,-0.40625 -0.296875,-0.765625 -0.984375,-0.765625 -1,0 -2.03125,0.921875 -2.03125,2.421875 0,1.796875 0.84375,2.34375 1.625,2.34375 0.84375,0 1.578125,-0.65625 1.578125,-1.5625 0,-0.890625 -0.703125,-1.546875 -1.515625,-1.546875 -0.5625,0 -0.859375,0.375 -1.015625,0.6875 z M 2,-0.078125 c -0.359375,0 -0.625,-0.203125 -0.78125,-0.515625 C 1.125,-0.796875 1.0625,-1.15625 1.0625,-1.5625 c 0,-0.6875 0.40625,-1.203125 0.96875,-1.203125 0.3125,0 0.53125,0.125 0.703125,0.375 0.171875,0.265625 0.171875,0.5625 0.171875,0.96875 0,0.390625 0,0.6875 -0.1875,0.96875 -0.15625,0.234375 -0.390625,0.375 -0.71875,0.375 z m 0,0"
           id="path7172" />
      </symbol>
    </g>
    <g
       id="g5587">
      <symbol
         overflow="visible"
         id="symbol6754">
        <path
           style="stroke:none"
           d=""
           id="path5857" />
      </symbol>
      <symbol
         overflow="visible"
         id="symbol6063">
        <path
           style="stroke:none"
           d="m 2.328125,-4.4375 c 0,-0.1875 0,-0.1875 -0.203125,-0.1875 -0.453125,0.4375 -1.078125,0.4375 -1.359375,0.4375 v 0.25 c 0.15625,0 0.625,0 1,-0.1875 v 3.546875 c 0,0.234375 0,0.328125 -0.6875,0.328125 H 0.8125 V 0 c 0.125,0 0.984375,-0.03125 1.234375,-0.03125 0.21875,0 1.09375,0.03125 1.25,0.03125 V -0.25 H 3.03125 c -0.703125,0 -0.703125,-0.09375 -0.703125,-0.328125 z m 0,0"
           id="path7925" />
      </symbol>
      <symbol
         overflow="visible"
         id="symbol7604">
        <path
           style="stroke:none"
           d="m 1.046875,-2.28125 c 0,-0.5625 0.046875,-1.078125 0.3125,-1.515625 0.234375,-0.375 0.609375,-0.625 1.0625,-0.625 0.203125,0 0.484375,0.046875 0.625,0.234375 C 2.875,-4.171875 2.71875,-4.046875 2.71875,-3.84375 c 0,0.171875 0.125,0.328125 0.328125,0.328125 0.21875,0 0.34375,-0.140625 0.34375,-0.34375 0,-0.40625 -0.296875,-0.765625 -0.984375,-0.765625 -1,0 -2.03125,0.921875 -2.03125,2.421875 0,1.796875 0.84375,2.34375 1.625,2.34375 0.84375,0 1.578125,-0.65625 1.578125,-1.5625 0,-0.890625 -0.703125,-1.546875 -1.515625,-1.546875 -0.5625,0 -0.859375,0.375 -1.015625,0.6875 z M 2,-0.078125 c -0.359375,0 -0.625,-0.203125 -0.78125,-0.515625 C 1.125,-0.796875 1.0625,-1.15625 1.0625,-1.5625 c 0,-0.6875 0.40625,-1.203125 0.96875,-1.203125 0.3125,0 0.53125,0.125 0.703125,0.375 0.171875,0.265625 0.171875,0.5625 0.171875,0.96875 0,0.390625 0,0.6875 -0.1875,0.96875 -0.15625,0.234375 -0.390625,0.375 -0.71875,0.375 z m 0,0"
           id="path2654" />
      </symbol>
    </g>
  </defs>
  <g
     inkscape:label="Layer 1"
     inkscape:groupmode="layer"
     id="layer1"
     transform="translate(-51.97949,-121.89648)">
    <g
       id="g1343"
       transform="matrix(0.41897218,0,0,0.41897218,34.944014,88.986714)"
       style="stroke-width:2.38679">
      <rect
         style="fill:#e6e6e6;stroke:none;stroke-width:1.19339;stroke-linecap:round;stroke-linejoin:round"
         id="rect846"
         width="38.199409"
         height="38.199409"
         x="40.66016"
         y="78.548813"
         ry="6.0276194" />
      <circle
         style="fill:#000000;stroke:none;stroke-width:1.19339;stroke-linecap:round;stroke-linejoin:round"
         id="path1049"
         cx="59.759865"
         cy="97.648514"
         r="3.1292639" />
    </g>
    <g
       id="g1349"
       transform="matrix(0.41897218,0,0,0.41897218,54.897566,88.986714)"
       style="stroke-width:2.38679">
      <rect
         style="fill:#e6e6e6;stroke:none;stroke-width:1.19339;stroke-linecap:round;stroke-linejoin:round"
         id="rect1345"
         width="38.199409"
         height="38.199409"
         x="40.66016"
         y="78.548813"
         ry="6.0276194" />
      <circle
         style="fill:#000000;stroke:none;stroke-width:1.19339;stroke-linecap:round;stroke-linejoin:round"
         id="circle1347"
         cx="53.409863"
         cy="91.298515"
         r="3.1292639" />
      <circle
         style="fill:#000000;stroke:none;stroke-width:1.19339;stroke-linecap:round;stroke-linejoin:round"
         id="circle1351"
         cx="66.109863"
         cy="103.99852"
         r="3.1292639" />
    </g>
    <g
       id="g1359"
       transform="matrix(0.41897218,0,0,0.41897218,74.851114,88.986714)"
       style="stroke-width:2.38679">
      <rect
         style="fill:#e6e6e6;stroke:none;stroke-width:1.19339;stroke-linecap:round;stroke-linejoin:round"
         id="rect1353"
         width="38.199409"
         height="38.199409"
         x="40.66016"
         y="78.548813"
         ry="6.0276194" />
      <circle
         style="fill:#000000;stroke:none;stroke-width:1.19339;stroke-linecap:round;stroke-linejoin:round"
         id="circle1355"
         cx="51.293194"
         cy="89.181847"
         r="3.1292639" />
      <circle
         style="fill:#000000;stroke:none;stroke-width:1.19339;stroke-linecap:round;stroke-linejoin:round"
         id="circle1357"
         cx="68.226532"
         cy="106.11518"
         r="3.1292639" />
      <circle
         style="fill:#000000;stroke:none;stroke-width:1.19339;stroke-linecap:round;stroke-linejoin:round"
         id="circle1361"
         cx="59.759869"
         cy="97.648521"
         r="3.1292639" />
    </g>
    <g
       id="g1473"
       transform="matrix(0.41897218,0,0,0.41897218,94.804676,88.986714)"
       style="stroke-width:2.38679">
      <rect
         style="fill:#e6e6e6;stroke:none;stroke-width:1.19339;stroke-linecap:round;stroke-linejoin:round"
         id="rect1465"
         width="38.199409"
         height="38.199409"
         x="40.66016"
         y="78.548813"
         ry="6.0276194" />
      <circle
         style="fill:#000000;stroke:none;stroke-width:1.19339;stroke-linecap:round;stroke-linejoin:round"
         id="circle1467"
         cx="51.293194"
         cy="89.181847"
         r="3.1292639" />
      <circle
         style="fill:#000000;stroke:none;stroke-width:1.19339;stroke-linecap:round;stroke-linejoin:round"
         id="circle1469"
         cx="68.226532"
         cy="106.11518"
         r="3.1292639" />
      <circle
         style="fill:#000000;stroke:none;stroke-width:1.19339;stroke-linecap:round;stroke-linejoin:round"
         id="circle1471"
         cx="68.226532"
         cy="89.181847"
         r="3.1292639" />
      <circle
         style="fill:#000000;stroke:none;stroke-width:1.19339;stroke-linecap:round;stroke-linejoin:round"
         id="circle1555"
         cx="51.293194"
         cy="106.11518"
         r="3.1292639" />
    </g>
    <g
       id="g1567"
       transform="matrix(0.41897218,0,0,0.41897218,114.75824,88.986714)"
       style="stroke-width:2.38679">
      <rect
         style="fill:#e6e6e6;stroke:none;stroke-width:1.19339;stroke-linecap:round;stroke-linejoin:round"
         id="rect1557"
         width="38.199409"
         height="38.199409"
         x="40.66016"
         y="78.548813"
         ry="6.0276194" />
      <circle
         style="fill:#000000;stroke:none;stroke-width:1.19339;stroke-linecap:round;stroke-linejoin:round"
         id="circle1559"
         cx="51.293194"
         cy="89.181847"
         r="3.1292639" />
      <circle
         style="fill:#000000;stroke:none;stroke-width:1.19339;stroke-linecap:round;stroke-linejoin:round"
         id="circle1561"
         cx="68.226532"
         cy="106.11518"
         r="3.1292639" />
      <circle
         style="fill:#000000;stroke:none;stroke-width:1.19339;stroke-linecap:round;stroke-linejoin:round"
         id="circle1563"
         cx="68.226532"
         cy="89.181847"
         r="3.1292639" />
      <circle
         style="fill:#000000;stroke:none;stroke-width:1.19339;stroke-linecap:round;stroke-linejoin:round"
         id="circle1565"
         cx="51.293194"
         cy="106.11518"
         r="3.1292639" />
      <circle
         style="fill:#000000;stroke:none;stroke-width:1.19339;stroke-linecap:round;stroke-linejoin:round"
         id="circle1569"
         cx="59.759865"
         cy="97.648514"
         r="3.1292639" />
    </g>
    <g
       id="g1583"
       transform="translate(238.125)">
      <rect
         style="fill:#e6e6e6;stroke:none;stroke-width:0.499999;stroke-linecap:round;stroke-linejoin:round"
         id="rect1571"
         width="16.00449"
         height="16.00449"
         x="-86.377754"
         y="121.89648"
         ry="2.5254047" />
      <circle
         style="fill:#000000;stroke:none;stroke-width:0.499999;stroke-linecap:round;stroke-linejoin:round"
         id="circle1573"
         cx="-81.922813"
         cy="126.35143"
         r="1.3110745" />
      <circle
         style="fill:#000000;stroke:none;stroke-width:0.499999;stroke-linecap:round;stroke-linejoin:round"
         id="circle1575"
         cx="-74.828217"
         cy="133.44601"
         r="1.3110745" />
      <circle
         style="fill:#000000;stroke:none;stroke-width:0.499999;stroke-linecap:round;stroke-linejoin:round"
         id="circle1577"
         cx="-74.828217"
         cy="126.35143"
         r="1.3110745" />
      <circle
         style="fill:#000000;stroke:none;stroke-width:0.499999;stroke-linecap:round;stroke-linejoin:round"
         id="circle1579"
         cx="-81.922813"
         cy="133.44601"
         r="1.3110745" />
      <circle
         style="fill:#000000;stroke:none;stroke-width:0.499999;stroke-linecap:round;stroke-linejoin:round"
         id="circle1581"
         cx="-81.922813"
         cy="129.89874"
         r="1.3110745" />
      <circle
         style="fill:#000000;stroke:none;stroke-width:0.499999;stroke-linecap:round;stroke-linejoin:round"
         id="circle1585"
         cx="-74.828217"
         cy="129.89874"
         r="1.3110745" />
      <text
         xml:space="preserve"
         transform="matrix(0.26458333,0,0,0.26458333,-238.12509,0)"
         id="text3611"
         style="font-style:normal;font-weight:normal;font-size:40px;line-height:1.25;font-family:sans-serif;letter-spacing:0px;word-spacing:0px;white-space:pre;shape-inside:url(#rect3613);fill:#000000;fill-opacity:1;stroke:none" />
      <g
         inkscape:label=""
         transform="matrix(0.75,0,0,0.75,-149.70608,86.386967)"
         id="g16893"
         style="stroke-width:1.33333">
        <g
           id="g9239"
           style="stroke-width:1.33333">
          <g
             style="fill:#000000;fill-opacity:1;stroke-width:1.33333"
             id="g5077">
            <use
               xlink:href="#symbol6063"
               x="93.121002"
               y="78.040001"
               id="use4676"
               width="100%"
               height="100%"
               style="stroke-width:1.33333" />
          </g>
          <path
             style="fill:none;stroke:#000000;stroke-width:0.530667;stroke-linecap:butt;stroke-linejoin:miter;stroke-miterlimit:10;stroke-opacity:1"
             d="M 9.375e-5,-6.5625e-4 H 3.97275"
             transform="matrix(1,0,0,-1,93.121,79.472)"
             id="path3376" />
          <g
             style="fill:#000000;fill-opacity:1;stroke-width:1.33333"
             id="g401">
            <use
               xlink:href="#symbol7604"
               x="93.121002"
               y="85.398003"
               id="use557"
               width="100%"
               height="100%"
               style="stroke-width:1.33333" />
          </g>
        </g>
      </g>
      <g
         inkscape:label=""
         transform="matrix(0.75,0,0,0.75,-249.47383,86.386967)"
         id="g17179"
         style="stroke-width:1.33333">
        <g
           id="g17177"
           style="stroke-width:1.33333">
          <g
             style="fill:#000000;fill-opacity:1;stroke-width:1.33333"
             id="g17169">
            <use
               xlink:href="#symbol6063"
               x="93.121002"
               y="78.040001"
               id="use17167"
               width="100%"
               height="100%"
               style="stroke-width:1.33333" />
          </g>
          <path
             style="fill:none;stroke:#000000;stroke-width:0.530667;stroke-linecap:butt;stroke-linejoin:miter;stroke-miterlimit:10;stroke-opacity:1"
             d="M 9.375e-5,-6.5625e-4 H 3.97275"
             transform="matrix(1,0,0,-1,93.121,79.472)"
             id="path17171" />
          <g
             style="fill:#000000;fill-opacity:1;stroke-width:1.33333"
             id="g17175">
            <use
               xlink:href="#symbol7604"
               x="93.121002"
               y="85.398003"
               id="use17173"
               width="100%"
               height="100%"
               style="stroke-width:1.33333" />
          </g>
        </g>
      </g>
      <g
         inkscape:label=""
         transform="matrix(0.75,0,0,0.75,-229.52028,86.386967)"
         id="g17193"
         style="stroke-width:1.33333">
        <g
           id="g17191"
           style="stroke-width:1.33333">
          <g
             style="fill:#000000;fill-opacity:1;stroke-width:1.33333"
             id="g17183">
            <use
               xlink:href="#symbol6063"
               x="93.121002"
               y="78.040001"
               id="use17181"
               width="100%"
               height="100%"
               style="stroke-width:1.33333" />
          </g>
          <path
             style="fill:none;stroke:#000000;stroke-width:0.530667;stroke-linecap:butt;stroke-linejoin:miter;stroke-miterlimit:10;stroke-opacity:1"
             d="M 9.375e-5,-6.5625e-4 H 3.97275"
             transform="matrix(1,0,0,-1,93.121,79.472)"
             id="path17185" />
          <g
             style="fill:#000000;fill-opacity:1;stroke-width:1.33333"
             id="g17189">
            <use
               xlink:href="#symbol7604"
               x="93.121002"
               y="85.398003"
               id="use17187"
               width="100%"
               height="100%"
               style="stroke-width:1.33333" />
          </g>
        </g>
      </g>
      <g
         inkscape:label=""
         transform="matrix(0.75,0,0,0.75,-189.61317,86.386967)"
         id="g17207"
         style="stroke-width:1.33333">
        <g
           id="g17205"
           style="stroke-width:1.33333">
          <g
             style="fill:#000000;fill-opacity:1;stroke-width:1.33333"
             id="g17197">
            <use
               xlink:href="#symbol6063"
               x="93.121002"
               y="78.040001"
               id="use17195"
               width="100%"
               height="100%"
               style="stroke-width:1.33333" />
          </g>
          <path
             style="fill:none;stroke:#000000;stroke-width:0.530667;stroke-linecap:butt;stroke-linejoin:miter;stroke-miterlimit:10;stroke-opacity:1"
             d="M 9.375e-5,-6.5625e-4 H 3.97275"
             transform="matrix(1,0,0,-1,93.121,79.472)"
             id="path17199" />
          <g
             style="fill:#000000;fill-opacity:1;stroke-width:1.33333"
             id="g17203">
            <use
               xlink:href="#symbol7604"
               x="93.121002"
               y="85.398003"
               id="use17201"
               width="100%"
               height="100%"
               style="stroke-width:1.33333" />
          </g>
        </g>
      </g>
      <g
         inkscape:label=""
         transform="matrix(0.75,0,0,0.75,-209.56673,86.386967)"
         id="g17221"
         style="stroke-width:1.33333">
        <g
           id="g17219"
           style="stroke-width:1.33333">
          <g
             style="fill:#000000;fill-opacity:1;stroke-width:1.33333"
             id="g17211">
            <use
               xlink:href="#symbol6063"
               x="93.121002"
               y="78.040001"
               id="use17209"
               width="100%"
               height="100%"
               style="stroke-width:1.33333" />
          </g>
          <path
             style="fill:none;stroke:#000000;stroke-width:0.530667;stroke-linecap:butt;stroke-linejoin:miter;stroke-miterlimit:10;stroke-opacity:1"
             d="M 9.375e-5,-6.5625e-4 H 3.97275"
             transform="matrix(1,0,0,-1,93.121,79.472)"
             id="path17213" />
          <g
             style="fill:#000000;fill-opacity:1;stroke-width:1.33333"
             id="g17217">
            <use
               xlink:href="#symbol7604"
               x="93.121002"
               y="85.398003"
               id="use17215"
               width="100%"
               height="100%"
               style="stroke-width:1.33333" />
          </g>
        </g>
      </g>
      <g
         inkscape:label=""
         transform="matrix(0.75,0,0,0.75,-169.65961,86.386967)"
         id="g17235"
         style="stroke-width:1.33333">
        <g
           id="g17233"
           style="stroke-width:1.33333">
          <g
             style="fill:#000000;fill-opacity:1;stroke-width:1.33333"
             id="g17225">
            <use
               xlink:href="#symbol6063"
               x="93.121002"
               y="78.040001"
               id="use17223"
               width="100%"
               height="100%"
               style="stroke-width:1.33333" />
          </g>
          <path
             style="fill:none;stroke:#000000;stroke-width:0.530667;stroke-linecap:butt;stroke-linejoin:miter;stroke-miterlimit:10;stroke-opacity:1"
             d="M 9.375e-5,-6.5625e-4 H 3.97275"
             transform="matrix(1,0,0,-1,93.121,79.472)"
             id="path17227" />
          <g
             style="fill:#000000;fill-opacity:1;stroke-width:1.33333"
             id="g17231">
            <use
               xlink:href="#symbol7604"
               x="93.121002"
               y="85.398003"
               id="use17229"
               width="100%"
               height="100%"
               style="stroke-width:1.33333" />
          </g>
        </g>
      </g>
    </g>
  </g>
</svg>
